<?xml version="1.0" standalone="no"?>
<!DOCTYPE svg PUBLIC "-//W3C//DTD SVG 20010904//EN"
 "http://www.w3.org/TR/2001/REC-SVG-20010904/DTD/svg10.dtd">
<svg version="1.0" xmlns="http://www.w3.org/2000/svg"
 width="700.000000pt" height="700.000000pt" viewBox="0 0 700.000000 700.000000"
 preserveAspectRatio="xMidYMid meet">
<metadata>
Created by potrace 1.14, written by Peter Selinger 2001-2017
</metadata>
<g transform="translate(0.000000,700.000000) scale(0.100000,-0.100000)"
fill="#000000" stroke="none">
<path d="M3753 5835 c-17 -7 -38 -24 -46 -37 -15 -23 -51 -144 -62 -207 -3
-19 -8 -37 -10 -41 -2 -3 -78 -303 -170 -665 -91 -363 -170 -673 -175 -690 -5
-16 -11 -41 -14 -55 -3 -14 -46 -185 -96 -380 -50 -195 -92 -363 -95 -372 -34
-144 -121 -478 -125 -478 -3 0 -55 141 -117 313 -61 171 -153 427 -203 567
-51 140 -130 361 -176 490 -91 252 -112 308 -128 328 -12 17 -77 49 -93 46 -7
-1 -22 -2 -33 -3 -30 -2 -76 -51 -93 -101 -22 -63 -78 -242 -82 -260 -2 -8
-61 -195 -130 -415 -69 -220 -128 -407 -130 -415 -1 -8 -19 -64 -38 -125 -41
-130 -110 -350 -165 -525 l-39 -125 -469 -5 c-433 -5 -472 -6 -498 -23 -52
-35 -67 -116 -30 -172 36 -55 27 -54 600 -52 512 2 530 3 556 22 15 11 32 31
38 45 12 24 58 160 65 190 1 8 15 51 29 95 46 143 167 530 170 545 2 8 15 51
30 95 64 202 168 531 170 540 8 40 51 165 55 165 3 0 57 -143 120 -318 187
-522 321 -893 346 -962 14 -36 53 -146 89 -245 71 -202 95 -238 164 -250 46
-7 93 12 116 48 8 12 35 105 61 207 25 102 91 363 146 580 55 217 145 573 200
790 55 217 118 463 139 545 21 83 41 161 43 175 3 14 10 43 16 65 6 22 11 45
12 50 1 6 5 20 10 33 5 12 11 33 13 45 2 12 17 71 32 131 30 118 30 118 48 6
3 -19 10 -60 16 -90 6 -30 13 -68 15 -85 2 -16 9 -57 15 -90 6 -33 13 -73 16
-90 2 -16 9 -50 14 -75 5 -25 12 -61 14 -80 3 -19 17 -100 31 -180 14 -80 28
-158 31 -175 2 -16 9 -52 14 -80 5 -27 12 -63 14 -80 3 -16 17 -95 31 -175 25
-141 38 -213 49 -275 12 -72 59 -339 77 -440 11 -60 22 -126 25 -145 3 -19 11
-69 19 -110 8 -41 23 -127 34 -190 11 -63 22 -125 25 -136 2 -12 7 -39 10 -60
4 -22 11 -66 17 -99 5 -33 12 -73 15 -90 3 -16 12 -68 21 -115 9 -47 17 -94
18 -105 2 -11 8 -48 15 -82 6 -35 13 -75 16 -90 3 -16 11 -64 19 -108 8 -44
16 -96 19 -116 3 -20 7 -42 10 -50 3 -8 7 -32 10 -54 3 -22 8 -51 11 -65 6
-28 7 -37 30 -168 9 -51 20 -103 26 -116 25 -54 127 -77 176 -39 14 10 49 66
78 123 50 98 83 168 273 560 198 411 235 488 254 528 11 23 25 42 32 42 6 1
255 1 553 2 572 0 575 1 609 46 23 30 28 96 9 135 -32 69 -14 67 -687 67 -583
0 -604 -1 -635 -20 -26 -15 -46 -47 -92 -142 -32 -68 -109 -225 -169 -350 -61
-125 -139 -286 -173 -358 -34 -71 -63 -129 -65 -128 -1 2 -5 19 -8 38 -7 50
-35 211 -41 240 -5 24 -38 209 -49 275 -12 68 -56 322 -61 345 -3 14 -7 36
-10 50 -2 14 -7 41 -10 60 -3 19 -10 60 -15 90 -5 30 -12 71 -15 90 -3 19 -22
123 -41 230 -20 107 -48 269 -64 360 -30 171 -78 447 -85 490 -9 50 -44 246
-50 280 -3 19 -10 58 -15 85 -5 28 -12 66 -15 85 -12 71 -46 267 -60 340 -8
41 -16 89 -19 105 -6 40 -36 211 -85 490 -87 494 -82 475 -131 500 -36 18 -75
19 -117 0z"/>
</g>
</svg>
