<?xml version="1.0" encoding="UTF-8"?>
<svg xmlns="http://www.w3.org/2000/svg" xmlns:xlink="http://www.w3.org/1999/xlink" width="375pt" height="374.999991pt" viewBox="0 0 375 374.999991" version="1.2">
<g id="surface1">
<path style=" stroke:none;fill-rule:nonzero;fill:rgb(19.60907%,19.219971%,69.40918%);fill-opacity:1;" d="M 33.960938 244.695312 C 51.621094 244.695312 69.273438 244.695312 86.933594 244.695312 C 89.953125 244.695312 92.433594 242.660156 93.316406 239.832031 C 104.351562 204.53125 115.382812 169.230469 126.421875 133.929688 C 122.164062 133.929688 117.910156 133.929688 113.652344 133.929688 C 126.894531 170.699219 140.136719 207.472656 153.378906 244.246094 C 155.488281 250.105469 164.4375 251 166.148438 244.246094 C 180.863281 186.144531 195.578125 128.042969 210.289062 69.941406 C 206.035156 69.941406 201.777344 69.941406 197.519531 69.941406 C 211.5 149.371094 225.476562 228.800781 239.453125 308.234375 C 240.429688 313.78125 249.144531 314.792969 251.554688 309.8125 C 262.183594 287.859375 272.8125 265.898438 283.441406 243.933594 C 286.085938 238.476562 275.210938 244.695312 282.367188 244.695312 C 289.332031 244.695312 296.296875 244.695312 303.265625 244.695312 C 315.753906 244.695312 328.246094 244.695312 340.742188 244.695312 C 349.277344 244.695312 349.277344 231.457031 340.742188 231.457031 C 320.140625 231.457031 299.542969 231.457031 278.941406 231.457031 C 276.753906 231.457031 274.21875 232.683594 273.226562 234.734375 C 262.191406 257.53125 251.15625 280.332031 240.121094 303.132812 C 244.15625 303.660156 248.1875 304.183594 252.222656 304.714844 C 238.242188 225.285156 224.265625 145.851562 210.289062 66.421875 C 209.125 59.816406 199.054688 60.363281 197.519531 66.421875 C 182.808594 124.523438 168.089844 182.625 153.378906 240.730469 C 157.636719 240.730469 161.890625 240.730469 166.148438 240.730469 C 152.90625 203.953125 139.664062 167.179688 126.421875 130.40625 C 124.226562 124.3125 115.683594 123.902344 113.652344 130.40625 C 102.617188 165.710938 91.585938 201.015625 80.546875 236.316406 C 82.675781 234.695312 84.804688 233.078125 86.933594 231.457031 C 69.273438 231.457031 51.621094 231.457031 33.960938 231.457031 C 25.421875 231.457031 25.421875 244.695312 33.960938 244.695312 Z M 33.960938 244.695312 "/>
</g>
</svg>
